<svg xmlns="http://www.w3.org/2000/svg" viewBox="0 0 180 180" fill="none" shape-rendering="auto" aria-hidden="true">
	<defs>
		<g id="sides-squareAssymetric-879d2532">
			<mask id="sidesSquareAssymetric-a" style="mask-type:luminance">
				<rect x="4" y="31" width="36" height="30" rx="4" fill="white" />
				<rect x="14" y="15" width="26" height="30" rx="4" fill="white" />
				<rect x="133" y="23" width="36" height="30" rx="4" fill="white" />
				<rect x="128" y="8" width="36" height="60" rx="4" fill="white" />
			</mask>
			<g mask="url(#sidesSquareAssymetric-a)">
				<path d="M-6 0h180v76H-6z" fill="#7a9f12" />
				<path d="M-6 0h180v76H-6z" fill="white" fill-opacity=".3" />
				<rect x="-6" y="47" width="180" height="29" fill="black" fill-opacity=".1" />
				<circle cx="155" cy="20" r="5" fill="white" fill-opacity=".6" />
				<circle cx="155" cy="36" r="5" fill="white" fill-opacity=".6" />
			</g>
		</g>
		<g id="top-radar-879d2532">
			<mask id="topRadar-a" style="mask-type:luminance">
				<path fill-rule="evenodd" clip-rule="evenodd" d="M35.8.7A20 20 0 1 0 64.08 29" fill="white" />
				<circle cx="59.13" cy="5.66" r="4" transform="rotate(45 59.13 5.66)" fill="white" />
				<rect x="56.31" y="7.07" width="2" height="26" transform="rotate(45 56.3 7.07)" fill="white" />
				<rect x="39.94" y="28.71" width="4" height="24" fill="white" />
			</mask>
			<g mask="url(#topRadar-a)">
				<path d="M-8 .6H92v52H-8z" fill="#7a9f12" />
				<path d="M-8 .6H92v52H-8z" fill="white" fill-opacity=".3" />
				<path fill-rule="evenodd" clip-rule="evenodd" d="M35.8.7A20 20 0 1 0 64.08 29" fill="white" fill-opacity=".2" />
				<circle cx="59.13" cy="8" r="5.66" transform="rotate(45 59.13 8)" fill="white" fill-opacity=".8" />
			</g>
		</g>
		<g id="head-round02-879d2532">
			<mask id="headRound02-a" style="mask-type:luminance">
				<path fill-rule="evenodd" clip-rule="evenodd" d="M0 31v-1c.18-.48.4-1.5 1-3 .83-3.06 2.78-6.56 6-10C16.7 6.6 35.17 0 65 0s48.3 6.6 58 17c3.22 3.44 5.17 6.94 6 10 .6 1.5.82 2.52 1 3v40c0-.1-.03.5 0 1a54 54 0 0 1-1 6c-1.19 6-3.4 11.91-7 17-9.72 16.34-27.74 26-57 26s-47.28-9.66-57-26c-3.6-5.1-5.8-11-7-17a54 54 0 0 1-1-6c.03-.45 0-1.32 0-1z" fill="white" />
			</mask>
			<g mask="url(#headRound02-a)">
				<path d="M-4-2h138v124H-4z" fill="#7a9f12" />
			</g>
		</g>
		<g id="mouth-grill01-879d2532">
			<rect x="8" y="8" width="4" height="8" rx="2" fill="black" fill-opacity=".6" />
			<rect x="32" y="8" width="4" height="8" rx="2" fill="black" fill-opacity=".6" />
			<rect x="20" y="8" width="4" height="8" rx="2" fill="black" fill-opacity=".6" />
			<rect x="44" y="8" width="4" height="8" rx="2" fill="black" fill-opacity=".6" />
			<rect x="56" y="8" width="4" height="8" rx="2" fill="black" fill-opacity=".6" />
		</g>
		<g id="eyes-roundFrame01-879d2532">
			<rect y="12" width="104" height="32" rx="16" fill="black" fill-opacity=".8" />
			<rect x="24" y="22" width="10" height="12" rx="2" fill="#F4F4F4" />
			<rect x="70" y="22" width="10" height="12" rx="2" fill="#F4F4F4" />
		</g>
		<clipPath id="clip-879d2532">
			<rect width="180" height="180" />
		</clipPath>
	</defs>
	<g clip-path="url(#clip-879d2532)">
		<use transform="translate(6 66)" href="#sides-squareAssymetric-879d2532" />
		<use transform="translate(49 -.6)" href="#top-radar-879d2532" />
		<use transform="translate(25 44)" href="#head-round02-879d2532" />
		<use transform="translate(56 128)" href="#mouth-grill01-879d2532" />
		<use transform="translate(38 76)" href="#eyes-roundFrame01-879d2532" />
	</g>
</svg>
