<svg width="1074" height="1074" viewBox="0 0 1074 1074" fill="none" xmlns="http://www.w3.org/2000/svg">
<path d="M198 667.807L198.5 667.77C203.791 667.424 210.241 667.795 215.538 668.263C295.379 675.309 352.037 739.403 356.387 817.865C358.393 861.303 343.43 903.82 314.66 936.427C284.833 969.601 247.509 986.703 203.146 989.027C174.025 989.538 144.19 983.034 119.394 967.49C-14.6681 883.451 38.4195 676.995 198 667.807Z" fill="#2B80E4"/>
<path d="M193.484 722.848C226.184 718.86 264.906 737.459 271.664 772.109C276.312 795.944 266.416 818.122 247.707 832.954C239.904 839.14 231.61 845.326 224.857 852.647C214.251 864.061 222.919 883.638 202.84 886.621C192.097 888.322 180.882 882.493 180.285 870.791C179.453 854.466 184.182 843.882 195.025 832.005C210.116 815.963 238.319 806.046 231.943 778.618C230.643 772.012 226.06 766.89 220.346 763.508C202.111 752.714 174.174 758.857 167.098 780.4C165.596 784.971 164.84 789.233 162.42 793.405C156.901 802.922 141.969 804.225 133.659 797.99C129.981 795.204 127.572 791.062 126.968 786.488C125.386 774.836 132.782 758.742 140.017 749.911C154.066 732.763 172.036 725.27 193.484 722.848Z" fill="#FFFEFC"/>
<path d="M195.447 905.255C203.465 903.957 211.561 907.066 216.648 913.398C221.735 919.729 223.028 928.305 220.033 935.854C217.039 943.403 210.219 948.762 202.175 949.884C189.926 951.594 178.583 943.127 176.739 930.897C174.896 918.668 183.239 907.232 195.447 905.255Z" fill="#FFFEFC"/>
<path d="M855.406 684.48C942.593 680.243 1016.64 747.637 1020.6 834.837C1024.56 922.037 956.937 995.869 869.725 999.559C782.899 1003.23 709.465 935.97 705.519 849.156C701.574 762.342 768.604 688.697 855.406 684.48Z" fill="#30B059"/>
<path d="M934.582 764.13C941.729 763.667 947.266 764.042 953.083 769.077C957.718 773.041 960.481 778.765 960.702 784.86C961.151 797.487 952.721 804.239 944.998 812.97L921.342 839.679L883.709 882.223C876.262 890.685 867.462 901.165 859.704 909.077C854.283 914.679 846.807 917.821 839.011 917.776C833.98 917.703 829.056 916.314 824.729 913.747C817.619 909.586 796.18 886.958 788.871 879.574C779.579 870.411 765.45 859.673 764.856 846.506C764.636 840.487 766.848 834.633 770.993 830.263C775.252 825.833 781.146 823.351 787.29 823.402C799.645 823.396 807.627 834.21 815.687 842.37C823.059 849.875 830.478 857.334 837.944 864.746L897.522 797.688C903.734 790.75 910.013 783.774 916.244 776.863C922.783 769.61 924.768 766.701 934.582 764.13Z" fill="#FFFEFC"/>
<path fill-rule="evenodd" clip-rule="evenodd" d="M527.527 171.822C602.317 165.678 667.897 221.397 673.914 296.197C679.93 370.998 624.098 436.482 549.287 442.37C474.658 448.243 409.368 392.576 403.366 317.957C397.365 243.338 452.919 177.952 527.527 171.822Z M530.408 207.499C585.29 202.957 633.487 243.709 638.129 298.582C642.772 353.455 602.107 401.726 547.243 406.469C492.237 411.224 443.814 370.431 439.16 315.417C434.505 260.402 475.385 212.054 530.408 207.499Z" fill="#FD9A0F"/>
<path d="M728.539 327.384C728.915 327.349 729.29 327.322 729.666 327.302C736.683 326.947 744.156 330.254 750.519 333.055C777.418 344.893 801.704 361.359 823.757 380.653C840.19 395.03 851.215 407.587 864.338 424.581C907.129 479.993 922.936 538.879 927.194 607.846C931.159 602.227 934.779 596.996 941.376 594.113C946.086 592.027 951.438 591.928 956.223 593.837C960.824 595.629 964.457 599.279 966.227 603.889C967.975 608.388 968.325 615.656 965.816 619.842C956.72 635.018 932.416 667.616 916.266 673.61C915.355 673.811 914.438 673.991 913.518 674.15C903.076 675.867 891.655 666.955 883.026 660.714C872.255 652.924 858.012 641.835 849.282 631.668C847.594 629.391 846.589 626.219 846.127 623.519C844.314 612.913 852.353 602.353 863.166 601.521C871.3 600.895 877.706 606.323 883.645 611.198C880.885 591.936 880.157 575.804 876.092 555.866C862.331 489.305 822.906 430.843 766.353 393.139C756.555 386.639 746.405 380.688 735.947 375.313C730.851 372.719 722.178 369.506 717.918 366.197C701.93 353.779 708.611 330.372 728.539 327.384Z" fill="#FD9A0F"/>
<path d="M288.757 329.556C291.699 329.213 295.527 329.281 298.564 329.262C310.939 329.188 323.155 329.716 335.468 331.289C345.583 332.581 356.744 332.793 363.442 341.785C368.945 349.172 368.132 355.99 367.011 364.551C364.928 378.566 361.667 392.679 358.008 406.364C355.56 414.698 353.267 423.398 349.78 431.348C343.323 446.074 322.254 447.848 313.682 434.186C308.474 425.885 310.899 417.257 312.838 408.505C305.739 413.602 298.41 418.525 291.618 424.009C232.549 471.703 201.233 529.916 192.606 604.636C191.845 612.471 191.726 620.45 191.145 628.275C190.151 654.036 151.47 655.765 147.96 632.014C145.544 615.666 148.574 589.906 151.281 573.838C165.637 488.635 215.752 420.797 284.982 371.685C277.256 371.552 269.425 372.16 263.194 366.884C258.93 363.274 256.525 358.322 256.186 352.77C255.8 347.18 257.683 341.67 261.409 337.484C268.49 329.624 278.921 330.137 288.757 329.556Z" fill="#2B80E4"/>
<path d="M404.834 909.425C413.805 908.821 422.17 911.992 425.913 920.736C427.911 925.41 427.969 930.686 426.077 935.403C422.889 943.289 416.764 945.755 409.681 948.791C481.47 976.028 560.369 978.139 633.512 954.782C645.598 950.904 657.451 946.331 669.01 941.086C674.685 938.571 680.269 935.812 685.961 933.278C697.995 927.921 710.993 932.225 715.86 945.023C717.882 950.19 717.688 955.961 715.324 960.981C712.342 967.4 707.422 970.869 701.494 974.151C684.91 983.333 667.622 990.192 649.771 996.417C566.445 1023.69 476.259 1021.36 394.448 989.837C398.349 998.12 401.519 1005.39 396.811 1014.34C394.455 1018.86 390.326 1022.2 385.412 1023.55C377.261 1025.74 367.092 1021.76 362.833 1014.44C352.763 997.154 342.771 978.282 336.613 959.187C333.499 950.11 338.382 937.361 346.923 932.868C363.767 924.007 386.467 913.757 404.834 909.425Z" fill="#30B059"/>
<path d="M534.784 18.9659C547.377 17.65 557.438 23.1361 561.355 35.7141C562.99 41.2415 562.711 47.1823 562.64 52.8979C562.427 70.0965 562.613 87.3193 562.695 104.517C562.764 119.067 557.717 128.005 543.359 132.08C530.535 133.759 520.127 128.242 516.387 115.304C514.828 109.913 515.208 103.647 515.273 98.0393C515.474 80.449 515.293 62.8524 515.211 45.2631C515.222 31.1853 521.192 22.7559 534.784 18.9659Z" fill="#FD9A0F"/>
<path d="M688.131 76.1338C693.763 75.6251 698.66 76.2042 703.657 79.0724C709.166 82.2176 713.163 87.4631 714.734 93.6088C719.191 110.901 702.04 124.043 693.206 137.307C687.412 146.006 679.451 155.117 672.797 163.21C670.662 165.807 664.629 167.847 661.249 168.767C655.274 169.783 649.74 169.101 644.363 166.134C639.001 163.212 635.101 158.186 633.602 152.267C629.104 134.908 644.863 122.461 653.78 109.213C659.902 100.118 667.787 90.494 674.969 82.2262C677.514 79.2965 684.254 77.1285 688.131 76.1338Z" fill="#FD9A0F"/>
<path d="M381.75 76.1474C387.566 75.5499 392.365 76.2663 397.562 79.128C400.156 80.5372 402.504 82.3569 404.516 84.5164C406.632 86.7608 408.663 89.3747 410.48 91.8747C420.188 105.234 430.56 118.152 440.054 131.651C441.516 133.73 442.968 137.129 443.619 139.501C445.381 145.882 444.444 152.708 441.025 158.378C437.285 164.45 431.398 167.248 424.741 168.799C404.341 171.279 397.085 153.71 386.022 139.788C379.982 132.187 365.343 115.456 362.846 106.862C361.028 100.402 361.836 93.4843 365.094 87.6164C368.925 80.7065 374.599 78.0987 381.75 76.1474Z" fill="#FD9A0F"/>
<path d="M752.779 225.095C757.609 224.261 763.032 225.224 767.236 227.773C771.983 230.657 775.345 235.356 776.542 240.78C777.811 246.277 776.722 252.055 773.538 256.714C772.061 258.88 768.338 262.543 766.05 263.366C752.584 268.21 733.42 272.282 719.413 275.181C714.452 275.927 709.65 275.413 705.219 272.918C700.372 270.154 696.851 265.546 695.457 260.143C694.092 254.731 695.011 248.996 697.998 244.282C703.985 234.931 716.273 233.623 726.221 231.187C734.994 229.038 743.948 226.993 752.779 225.095Z" fill="#FD9A0F"/>
<path d="M316.567 225.052C323.169 224.233 331.219 226.373 337.671 228.116C347.464 230.763 359.183 232.577 368.596 236.069C380.23 240.385 386.221 253.304 379.999 264.529C376.294 271.213 372.699 272.941 365.675 275.196C354.586 276.252 325.363 267.99 313.798 264.451C295.647 258.897 294.321 231.863 316.567 225.052Z" fill="#FD9A0F"/>
</svg>
